{
    "asset" : {
        "generator" : "Khronos glTF Blender I/O v3.4.50",
        "version" : "2.0"
    },
    "extensionsUsed" : [
        "KHR_materials_clearcoat",
        "KHR_materials_transmission",
        "KHR_materials_specular",
        "KHR_materials_ior"
    ],
    "scene" : 0,
    "scenes" : [
        {
            "name" : "Scene",
            "nodes" : [
                0,
                1,
                2,
                3,
                4
            ]
        }
    ],
    "nodes" : [
        {
            "mesh" : 0,
            "name" : "Bottle",
            "scale" : [
                0.8813505172729492,
                0.8487107157707214,
                0.8813505172729492
            ]
        },
        {
            "name" : "Empty",
            "rotation" : [
                0.70710688829422,
                0,
                0,
                0.7071066498756409
            ]
        },
        {
            "mesh" : 1,
            "name" : "Cover",
            "scale" : [
                0.8813505172729492,
                0.8487107157707214,
                0.8813505172729492
            ],
            "translation" : [
                0,
                0.11784809082746506,
                0
            ]
        },
        {
            "mesh" : 2,
            "name" : "Design.001",
            "rotation" : [
                -0.014476360753178596,
                0,
                0,
                0.9998952150344849
            ],
            "scale" : [
                0.8813505172729492,
                0.8487803936004639,
                0.8813665509223938
            ],
            "translation" : [
                0,
                0.11784809082746506,
                0
            ]
        },
        {
            "mesh" : 3,
            "name" : "Label"
        }
    ],
    "materials" : [
        {
            "doubleSided" : true,
            "emissiveFactor" : [
                1,
                1,
                1
            ],
            "extensions" : {
                "KHR_materials_clearcoat" : {
                    "clearcoatFactor" : 0.10000000149011612,
                    "clearcoatRoughnessFactor" : 0.10000000149011612
                },
                "KHR_materials_transmission" : {
                    "transmissionFactor" : 0.5
                },
                "KHR_materials_specular" : {
                    "specularColorFactor" : [
                        0.5373722757632639,
                        0.5373722757632639,
                        0.5373722757632639
                    ]
                },
                "KHR_materials_ior" : {
                    "ior" : 6.449999809265137
                }
            },
            "name" : "Bottle Cap",
            "pbrMetallicRoughness" : {
                "baseColorTexture": {
          "index": 0
        },
                "metallicFactor" : 0,
                "roughnessFactor" : 0.5
            }
        },
        {
            "doubleSided" : true,
            "name" : "Material",
            "pbrMetallicRoughness" : {
                "baseColorTexture" : {
                    "index" : 0
                },
                "metallicFactor" : 0,
                "roughnessFactor" : 0.5
            }
        }
    ],
    "meshes" : [
        {
            "name" : "Cylinder",
            "primitives" : [
                {
                    "attributes" : {
                        "POSITION" : 0,
                        "TEXCOORD_0" : 1,
                        "NORMAL" : 2
                    },
                    "indices" : 3,
                    "material" : 0
                }
            ]
        },
        {
            "name" : "Circle",
            "primitives" : [
                {
                    "attributes" : {
                        "POSITION" : 4,
                        "TEXCOORD_0" : 5,
                        "NORMAL" : 6
                    },
                    "indices" : 7,
                    "material" : 0
                }
            ]
        },
        {
            "name" : "Cube",
            "primitives" : [
                {
                    "attributes" : {
                        "POSITION" : 8,
                        "TEXCOORD_0" : 9,
                        "NORMAL" : 10
                    },
                    "indices" : 11,
                    "material" : 0
                }
            ]
        },
        {
            "name" : "Cylinder.001",
            "primitives" : [
                {
                    "attributes" : {
                        "POSITION" : 12,
                        "TEXCOORD_0" : 13,
                        "NORMAL" : 14
                    },
                    "indices" : 15,
                    "material" : 1
                }
            ]
        }
    ],
    "textures" : [
        {
            "sampler" : 0,
            "source" : 0
        }
    ],
     "images": [
    {
      "uri": "texturescopy/TexturesCom_Wheels0106_M_baseColor.jpeg"
    },
    {
      "uri": "texturescopy/Lada_baseColor.png"
    },
    {
      "uri": "texturescopy/Lada_metallicRoughness.png"
    },
    {
      "uri": "texturescopy/Lada_normal.png"
    }
  ],
    "accessors" : [
        {
            "bufferView" : 0,
            "componentType" : 5126,
            "count" : 459,
            "max" : [
                0.05060567706823349,
                0.12260740250349045,
                0.05060567706823349
            ],
            "min" : [
                -0.05060567706823349,
                -0.11984308809041977,
                -0.05060567706823349
            ],
            "type" : "VEC3"
        },
        {
            "bufferView" : 1,
            "componentType" : 5126,
            "count" : 459,
            "type" : "VEC2"
        },
        {
            "bufferView" : 2,
            "componentType" : 5126,
            "count" : 459,
            "type" : "VEC3"
        },
        {
            "bufferView" : 3,
            "componentType" : 5123,
            "count" : 1908,
            "type" : "SCALAR"
        },
        {
            "bufferView" : 4,
            "componentType" : 5126,
            "count" : 855,
            "max" : [
                0.028805609792470932,
                0.0698871910572052,
                0.028808923438191414
            ],
            "min" : [
                -0.028808780014514923,
                -0.020531106740236282,
                -0.02880546636879444
            ],
            "type" : "VEC3"
        },
        {
            "bufferView" : 5,
            "componentType" : 5126,
            "count" : 855,
            "type" : "VEC2"
        },
        {
            "bufferView" : 6,
            "componentType" : 5126,
            "count" : 855,
            "type" : "VEC3"
        },
        {
            "bufferView" : 7,
            "componentType" : 5123,
            "count" : 2658,
            "type" : "SCALAR"
        },
        {
            "bufferView" : 8,
            "componentType" : 5126,
            "count" : 27566,
            "max" : [
                0.027586067095398903,
                0.02078283205628395,
                0.027400515973567963
            ],
            "min" : [
                -0.02758602611720562,
                -0.018519163131713867,
                -0.02807663008570671
            ],
            "type" : "VEC3"
        },
        {
            "bufferView" : 9,
            "componentType" : 5126,
            "count" : 27566,
            "type" : "VEC2"
        },
        {
            "bufferView" : 10,
            "componentType" : 5126,
            "count" : 27566,
            "type" : "VEC3"
        },
        {
            "bufferView" : 11,
            "componentType" : 5123,
            "count" : 41472,
            "type" : "SCALAR"
        },
        {
            "bufferView" : 12,
            "componentType" : 5126,
            "count" : 66,
            "max" : [
                0.04529007151722908,
                0.0558379702270031,
                0.04529006779193878
            ],
            "min" : [
                -0.04529007151722908,
                -0.0341620035469532,
                -0.04529006779193878
            ],
            "type" : "VEC3"
        },
        {
            "bufferView" : 13,
            "componentType" : 5126,
            "count" : 66,
            "type" : "VEC2"
        },
        {
            "bufferView" : 14,
            "componentType" : 5126,
            "count" : 66,
            "type" : "VEC3"
        },
        {
            "bufferView" : 15,
            "componentType" : 5123,
            "count" : 192,
            "type" : "SCALAR"
        }
    ],
    "bufferViews" : [
        {
            "buffer" : 0,
            "byteLength" : 5508,
            "byteOffset" : 0,
            "target" : 34962
        },
        {
            "buffer" : 0,
            "byteLength" : 3672,
            "byteOffset" : 5508,
            "target" : 34962
        },
        {
            "buffer" : 0,
            "byteLength" : 5508,
            "byteOffset" : 9180,
            "target" : 34962
        },
        {
            "buffer" : 0,
            "byteLength" : 3816,
            "byteOffset" : 14688,
            "target" : 34963
        },
        {
            "buffer" : 0,
            "byteLength" : 10260,
            "byteOffset" : 18504,
            "target" : 34962
        },
        {
            "buffer" : 0,
            "byteLength" : 6840,
            "byteOffset" : 28764,
            "target" : 34962
        },
        {
            "buffer" : 0,
            "byteLength" : 10260,
            "byteOffset" : 35604,
            "target" : 34962
        },
        {
            "buffer" : 0,
            "byteLength" : 5316,
            "byteOffset" : 45864,
            "target" : 34963
        },
        {
            "buffer" : 0,
            "byteLength" : 330792,
            "byteOffset" : 51180,
            "target" : 34962
        },
        {
            "buffer" : 0,
            "byteLength" : 220528,
            "byteOffset" : 381972,
            "target" : 34962
        },
        {
            "buffer" : 0,
            "byteLength" : 330792,
            "byteOffset" : 602500,
            "target" : 34962
        },
        {
            "buffer" : 0,
            "byteLength" : 82944,
            "byteOffset" : 933292,
            "target" : 34963
        },
        {
            "buffer" : 0,
            "byteLength" : 792,
            "byteOffset" : 1016236,
            "target" : 34962
        },
        {
            "buffer" : 0,
            "byteLength" : 528,
            "byteOffset" : 1017028,
            "target" : 34962
        },
        {
            "buffer" : 0,
            "byteLength" : 792,
            "byteOffset" : 1017556,
            "target" : 34962
        },
        {
            "buffer" : 0,
            "byteLength" : 384,
            "byteOffset" : 1018348,
            "target" : 34963
        },
        {
            "buffer" : 0,
            "byteLength" : 1041137,
            "byteOffset" : 1018732
        }
    ],
    "samplers" : [
        {
            "magFilter" : 9729,
            "minFilter" : 9987
        }
    ],
    "buffers" : [
        {
            "byteLength" : 2059872,
            "uri" : "data:application/octet-stream;base64,"
        }
    ]
}
