<svg width="58" height="61" viewBox="0 0 58 61" fill="none" xmlns="http://www.w3.org/2000/svg">
<rect width="58" height="61" fill="#F5F5F5"/>
<g clip-path="url(#clip0_0_1)">
<rect width="375" height="3837" transform="translate(-298 -17)" fill="#E4BCBC"/>
<path d="M-298 -17H77V78H-298V-17Z" fill="white" stroke="black"/>
<rect x="0.5" y="0.5" width="57" height="60" rx="10.5" fill="white" stroke="black"/>
<path d="M40.5312 28.7812L41.1562 29.4688V35.0625L40.5312 35.6875H17.5L16.8438 35.0625V29.4688L17.5 28.7812H40.5312ZM40.5312 41.125L41.1562 41.8438V47.4062L40.5312 48.0312H17.5L16.8438 47.4062V41.8438L17.5 41.125H40.5312Z" fill="black"/>
<path d="M40.5312 28.7812L41.2712 28.1086L40.9736 27.7812H40.5312V28.7812ZM41.1562 29.4688H42.1562V29.0821L41.8962 28.7961L41.1562 29.4688ZM41.1562 35.0625L41.8634 35.7696L42.1562 35.4767V35.0625H41.1562ZM40.5312 35.6875V36.6875H40.9455L41.2384 36.3946L40.5312 35.6875ZM17.5 35.6875L16.8103 36.4116L17.1 36.6875H17.5V35.6875ZM16.8438 35.0625H15.8438V35.4911L16.1541 35.7866L16.8438 35.0625ZM16.8438 29.4688L16.1204 28.7783L15.8438 29.0681V29.4688H16.8438ZM17.5 28.7812V27.7812H17.0721L16.7766 28.0908L17.5 28.7812ZM40.5312 41.125L41.2859 40.4688L40.9869 40.125H40.5312V41.125ZM41.1562 41.8438H42.1562V41.4698L41.9109 41.1876L41.1562 41.8438ZM41.1562 47.4062L41.8634 48.1134L42.1562 47.8205V47.4062H41.1562ZM40.5312 48.0312V49.0312H40.9455L41.2384 48.7384L40.5312 48.0312ZM17.5 48.0312L16.8103 48.7554L17.1 49.0312H17.5V48.0312ZM16.8438 47.4062H15.8438V47.8348L16.1541 48.1304L16.8438 47.4062ZM16.8438 41.8438L16.1053 41.1695L15.8438 41.4559V41.8438H16.8438ZM17.5 41.125V40.125H17.0589L16.7615 40.4507L17.5 41.125ZM39.7913 29.4539L40.4163 30.1414L41.8962 28.7961L41.2712 28.1086L39.7913 29.4539ZM40.1562 29.4688V35.0625H42.1562V29.4688H40.1562ZM40.4491 34.3554L39.8241 34.9804L41.2384 36.3946L41.8634 35.7696L40.4491 34.3554ZM40.5312 34.6875H17.5V36.6875H40.5312V34.6875ZM18.1897 34.9634L17.5334 34.3384L16.1541 35.7866L16.8103 36.4116L18.1897 34.9634ZM17.8438 35.0625V29.4688H15.8438V35.0625H17.8438ZM17.5671 30.1592L18.2234 29.4717L16.7766 28.0908L16.1204 28.7783L17.5671 30.1592ZM17.5 29.7812H40.5312V27.7812H17.5V29.7812ZM39.7766 41.7812L40.4016 42.4999L41.9109 41.1876L41.2859 40.4688L39.7766 41.7812ZM40.1562 41.8438V47.4062H42.1562V41.8438H40.1562ZM40.4491 46.6991L39.8241 47.3241L41.2384 48.7384L41.8634 48.1134L40.4491 46.6991ZM40.5312 47.0312H17.5V49.0312H40.5312V47.0312ZM18.1897 47.3071L17.5334 46.6821L16.1541 48.1304L16.8103 48.7554L18.1897 47.3071ZM17.8438 47.4062V41.8438H15.8438V47.4062H17.8438ZM17.5822 42.518L18.2385 41.7993L16.7615 40.4507L16.1053 41.1695L17.5822 42.518ZM17.5 42.125H40.5312V40.125H17.5V42.125Z" fill="black"/>
<path d="M40.5312 15.7812L41.1562 16.4688V22.0625L40.5312 22.6875H17.5L16.8438 22.0625V16.4688L17.5 15.7812H40.5312ZM40.5312 28.125L41.1562 28.8438V34.4062L40.5312 35.0312H17.5L16.8438 34.4062V28.8438L17.5 28.125H40.5312Z" fill="black"/>
</g>
<defs>
<clipPath id="clip0_0_1">
<rect width="375" height="3837" fill="white" transform="translate(-298 -17)"/>
</clipPath>
</defs>
</svg>
