<svg width="273" height="69" viewBox="0 0 273 69" fill="none" xmlns="http://www.w3.org/2000/svg">
<path id="ZODBYTE" d="M21.8906 41.5391L22.4062 42.0078V46.5312L21.8906 47H2.88281L2.39062 46.5312V42.4766L7.64062 32.6094H4.94531L4.45312 32.1172V27.7109L4.94531 27.1719H10.4531L15.1641 18.2422H3.5625L3.02344 17.7734V13.25L3.5625 12.7812H21.2109L21.7031 13.25V17.1406L16.4062 27.1719H19.2422L19.7344 27.7109V32.1172L19.2422 32.6094H13.6406L8.97656 41.5391H21.8906ZM36.8438 47.4219C35.4688 47.4219 34.2656 47.2422 33.2344 46.8828C32.2031 46.5234 31.3125 46.0625 30.5625 45.5C29.8125 44.9219 29.1953 44.2734 28.7109 43.5547C28.2266 42.8359 27.8359 42.1172 27.5391 41.3984C27.2578 40.6797 27.0547 39.9922 26.9297 39.3359C26.8203 38.6797 26.7656 38.1328 26.7656 37.6953V22.0391C26.7656 21.4922 26.8281 20.875 26.9531 20.1875C27.0938 19.5 27.3125 18.8047 27.6094 18.1016C27.9219 17.3984 28.3281 16.7188 28.8281 16.0625C29.3438 15.3906 29.9766 14.7969 30.7266 14.2812C31.4766 13.75 32.3594 13.3281 33.375 13.0156C34.4062 12.7031 35.5859 12.5469 36.9141 12.5469C38.1328 12.5469 39.2266 12.6953 40.1953 12.9922C41.1797 13.2891 42.0469 13.6875 42.7969 14.1875C43.5469 14.6875 44.1875 15.2656 44.7188 15.9219C45.2656 16.5781 45.7031 17.2578 46.0312 17.9609C46.375 18.6641 46.625 19.375 46.7812 20.0938C46.9531 20.8125 47.0391 21.4766 47.0391 22.0859V37.7422C47.0391 38.3984 46.9609 39.0938 46.8047 39.8281C46.6484 40.5469 46.3984 41.2656 46.0547 41.9844C45.7109 42.7031 45.2656 43.3906 44.7188 44.0469C44.1875 44.7031 43.5469 45.2812 42.7969 45.7812C42.0469 46.2812 41.1719 46.6797 40.1719 46.9766C39.1875 47.2734 38.0781 47.4219 36.8438 47.4219ZM41.5078 22.2266C41.5078 21.2578 41.3281 20.4922 40.9688 19.9297C40.625 19.3516 40.2031 18.9141 39.7031 18.6172C39.2188 18.3203 38.7109 18.1328 38.1797 18.0547C37.6641 17.9609 37.2422 17.9141 36.9141 17.9141C36.5234 17.9141 36.0625 17.9609 35.5312 18.0547C35 18.1484 34.4922 18.3516 34.0078 18.6641C33.5391 18.9609 33.1328 19.3906 32.7891 19.9531C32.4609 20.5156 32.2969 21.2734 32.2969 22.2266V37.6016C32.2969 38.5547 32.4609 39.3281 32.7891 39.9219C33.1172 40.5 33.5156 40.9453 33.9844 41.2578C34.4688 41.5703 34.9766 41.7812 35.5078 41.8906C36.0391 42 36.5078 42.0547 36.9141 42.0547C37.2734 42.0547 37.7109 42.0078 38.2266 41.9141C38.7578 41.8203 39.2656 41.6172 39.75 41.3047C40.2344 40.9922 40.6484 40.5469 40.9922 39.9688C41.3359 39.375 41.5078 38.5859 41.5078 37.6016V22.2266ZM63.3281 12.7812C64.8906 12.7812 66.2109 13 67.2891 13.4375C68.3672 13.8594 69.2656 14.3984 69.9844 15.0547C70.7031 15.6953 71.2578 16.4062 71.6484 17.1875C72.0547 17.9688 72.3516 18.7109 72.5391 19.4141C72.7422 20.1172 72.8672 20.7422 72.9141 21.2891C72.9609 21.8203 72.9844 22.1641 72.9844 22.3203V37.3438C72.9844 37.5156 72.9609 37.875 72.9141 38.4219C72.8828 38.9531 72.7656 39.5781 72.5625 40.2969C72.375 41.0156 72.0859 41.7734 71.6953 42.5703C71.3047 43.3516 70.7578 44.0703 70.0547 44.7266C69.3516 45.3828 68.4609 45.9297 67.3828 46.3672C66.3203 46.7891 65.0156 47 63.4688 47H53.2969L52.8047 46.5312V13.25L53.2969 12.7812H63.3281ZM58.2891 41.5391H63.375C63.8594 41.5391 64.3438 41.4844 64.8281 41.375C65.3281 41.2656 65.7734 41.0547 66.1641 40.7422C66.5703 40.4297 66.8984 40 67.1484 39.4531C67.4141 38.8906 67.5469 38.1719 67.5469 37.2969V22.4609C67.5469 21.6016 67.4141 20.8984 67.1484 20.3516C66.8984 19.8047 66.5703 19.375 66.1641 19.0625C65.7578 18.75 65.3047 18.5391 64.8047 18.4297C64.3047 18.3047 63.8125 18.2422 63.3281 18.2422H58.2891V41.5391ZM95.8594 29.2812C96.6562 29.8594 97.2734 30.5312 97.7109 31.2969C98.1484 32.0469 98.4688 32.7734 98.6719 33.4766C98.8906 34.1797 99.0234 34.8047 99.0703 35.3516C99.1172 35.8828 99.1406 36.2109 99.1406 36.3359V37.4375C99.1406 38.0312 99.0781 38.6797 98.9531 39.3828C98.8281 40.0859 98.6172 40.7969 98.3203 41.5156C98.0391 42.2188 97.6562 42.8984 97.1719 43.5547C96.6875 44.2109 96.0859 44.7969 95.3672 45.3125C94.6484 45.8281 93.7969 46.2422 92.8125 46.5547C91.8438 46.8516 90.7188 47 89.4375 47H79.2188L78.7266 46.5312V13.25L79.2188 12.7812H89.25C90.9844 12.7812 92.4531 13.0625 93.6562 13.625C94.8594 14.1719 95.8281 14.8906 96.5625 15.7812C97.2969 16.6719 97.8281 17.6797 98.1562 18.8047C98.4844 19.9141 98.6484 21.0391 98.6484 22.1797V22.7188C98.6484 23.125 98.6094 23.6094 98.5312 24.1719C98.4531 24.7188 98.3047 25.2891 98.0859 25.8828C97.8828 26.4766 97.6016 27.0703 97.2422 27.6641C96.8828 28.2578 96.4219 28.7969 95.8594 29.2812ZM93.1406 22.1797C93.1406 20.8203 92.8047 19.8281 92.1328 19.2031C91.4609 18.5625 90.4531 18.2422 89.1094 18.2422H84.2109V26.7031H89.3906C89.8125 26.7031 90.2422 26.6641 90.6797 26.5859C91.1328 26.4922 91.5391 26.3047 91.8984 26.0234C92.2578 25.7266 92.5547 25.3125 92.7891 24.7812C93.0234 24.2344 93.1406 23.5156 93.1406 22.625V22.1797ZM84.2109 41.4688H89.3438C89.8281 41.4688 90.3203 41.4141 90.8203 41.3047C91.3359 41.1953 91.7969 40.9922 92.2031 40.6953C92.625 40.3828 92.9609 39.9609 93.2109 39.4297C93.4766 38.8984 93.6094 38.2031 93.6094 37.3438V36.3828C93.6094 33.5391 92.25 32.1172 89.5312 32.1172H84.2109V41.4688ZM118.078 12.7812H123.023L123.469 13.4375L114.773 32.6094V46.5312L114.305 47H109.734L109.266 46.5312V32.5156L100.57 13.4375L100.992 12.7812H105.984L106.43 13.0156L111.984 25.3906L117.656 13.0156L118.078 12.7812ZM133.008 46.5312V18.2891H125.648L125.18 17.8203V13.25L125.648 12.7812H145.852L146.391 13.25V17.8203L145.852 18.2891H138.469V46.5312L138 47H133.477L133.008 46.5312ZM150.984 12.7812H169.406L169.945 13.25V17.7266L169.406 18.1953H156.023V27.1719H168.398L168.891 27.6641V32.1172L168.398 32.6094H156.023V41.5859H169.406L169.945 42.0547V46.5312L169.406 47H150.984L150.492 46.5312V13.25L150.984 12.7812Z" fill="black"/>
</svg>
